{
  "accessors": [
    {
      "bufferView": 2,
      "componentType": 5126,
      "count": 250,
      "max": [
        0.055789999663829803,
        0.055969998240470886,
        0.24156999588012695
      ],
      "min": [
        -0.059599999338388443,
        -0.054620001465082169,
        0.14935000240802765
      ],
      "type": "VEC3"
    },
    {
      "bufferView": 2,
      "byteOffset": 3000,
      "componentType": 5126,
      "count": 250,
      "max": [
        0.99970549345016479,
        0.99854212999343872,
        0.99996894598007202
      ],
      "min": [
        -0.99971860647201538,
        -0.99599385261535645,
        -0.99948287010192871
      ],
      "type": "VEC3"
    },
    {
      "bufferView": 3,
      "componentType": 5126,
      "count": 250,
      "max": [
        0,
        0,
        0,
        1
      ],
      "min": [
        0,
        0,
        0,
        1
      ],
      "type": "VEC4"
    },
    {
      "bufferView": 0,
      "componentType": 5125,
      "count": 1368,
      "max": [
        249
      ],
      "min": [
        0
      ],
      "type": "SCALAR"
    },
    {
      "bufferView": 2,
      "byteOffset": 6000,
      "componentType": 5126,
      "count": 318,
      "max": [
        0.095190003514289856,
        0.086259998381137848,
        0.2363400012254715
      ],
      "min": [
        -0.13942000269889832,
        -0.077449999749660492,
        -0.15000000596046448
      ],
      "type": "VEC3"
    },
    {
      "bufferView": 2,
      "byteOffset": 9816,
      "componentType": 5126,
      "count": 318,
      "max": [
        1,
        1,
        0.99747121334075928
      ],
      "min": [
        -1,
        -1,
        -0.97749185562133789
      ],
      "type": "VEC3"
    },
    {
      "bufferView": 3,
      "byteOffset": 4000,
      "componentType": 5126,
      "count": 318,
      "max": [
        0,
        0,
        0,
        1
      ],
      "min": [
        0,
        0,
        0,
        1
      ],
      "type": "VEC4"
    },
    {
      "bufferView": 0,
      "byteOffset": 5472,
      "componentType": 5125,
      "count": 1806,
      "max": [
        317
      ],
      "min": [
        0
      ],
      "type": "SCALAR"
    },
    {
      "bufferView": 2,
      "byteOffset": 13632,
      "componentType": 5126,
      "count": 192,
      "max": [
        0.11819999665021896,
        0.10734999924898148,
        0.16536000370979309
      ],
      "min": [
        -0.17046000063419342,
        -0.092960000038146973,
        0.0044399998150765896
      ],
      "type": "VEC3"
    },
    {
      "bufferView": 2,
      "byteOffset": 15936,
      "componentType": 5126,
      "count": 192,
      "max": [
        0.69109475612640381,
        0.97976326942443848,
        0.98447626829147339
      ],
      "min": [
        -0.69109475612640381,
        -0.97976326942443848,
        -0.98447626829147339
      ],
      "type": "VEC3"
    },
    {
      "bufferView": 3,
      "byteOffset": 9088,
      "componentType": 5126,
      "count": 192,
      "max": [
        0.99953246116638184,
        0.95233899354934692,
        0.38967397809028625,
        1
      ],
      "min": [
        -0.95405542850494385,
        -0.9929547905921936,
        -0.44157376885414124,
        -1
      ],
      "type": "VEC4"
    },
    {
      "bufferView": 1,
      "componentType": 5126,
      "count": 192,
      "max": [
        0.86694002151489258,
        0.98615998029708862
      ],
      "min": [
        0.084179997444152832,
        0.012839999981224537
      ],
      "type": "VEC2"
    },
    {
      "bufferView": 0,
      "byteOffset": 12696,
      "componentType": 5125,
      "count": 288,
      "max": [
        191
      ],
      "min": [
        0
      ],
      "type": "SCALAR"
    }
  ],
  "asset": {
    "extras": {
      "author": "intrepidolivia (https://sketchfab.com/intrepidolivia)",
      "license": "CC-BY-NC-SA-4.0 (http://creativecommons.org/licenses/by-nc-sa/4.0/)",
      "source": "https://sketchfab.com/models/7aff3f1a1736416e8072ca82f4ffd01b",
      "title": "Single Stem Rose"
    },
    "generator": "Sketchfab-3.19.6",
    "version": "2.0"
  },
  "bufferViews": [
    {
      "buffer": 0,
      "byteLength": 13848,
      "byteOffset": 0,
      "name": "floatBufferViews",
      "target": 34963
    },
    {
      "buffer": 0,
      "byteLength": 1536,
      "byteOffset": 13848,
      "byteStride": 8,
      "name": "floatBufferViews",
      "target": 34962
    },
    {
      "buffer": 0,
      "byteLength": 18240,
      "byteOffset": 15384,
      "byteStride": 12,
      "name": "floatBufferViews",
      "target": 34962
    },
    {
      "buffer": 0,
      "byteLength": 12160,
      "byteOffset": 33624,
      "byteStride": 16,
      "name": "floatBufferViews",
      "target": 34962
    }
  ],
  "buffers": [
    {
      "byteLength": 45784,
      "uri": "scene.bin"
    }
  ],
  "images": [
    {
      "uri": "textures/leaves_baseColor.png"
    }
  ],
  "materials": [
    {
      "doubleSided": true,
      "emissiveFactor": [
        0,
        0,
        0
      ],
      "name": "petals",
      "pbrMetallicRoughness": {
        "baseColorFactor": [
          0.40990987340000001,
          0,
          0.0055544069999999999,
          1
        ],
        "metallicFactor": 0.2029344512,
        "roughnessFactor": 0.56269054880000002
      }
    },
    {
      "doubleSided": true,
      "emissiveFactor": [
        0,
        0,
        0
      ],
      "name": "stem",
      "pbrMetallicRoughness": {
        "baseColorFactor": [
          0.0054404726999999998,
          0.097607663499999997,
          0.0018911901000000001,
          1
        ],
        "metallicFactor": 0.13586128049999999,
        "roughnessFactor": 0.66634908540000004
      }
    },
    {
      "alphaMode": "BLEND",
      "doubleSided": true,
      "emissiveFactor": [
        0,
        0,
        0
      ],
      "name": "leaves",
      "pbrMetallicRoughness": {
        "baseColorFactor": [
          1,
          1,
          1,
          1
        ],
        "baseColorTexture": {
          "index": 0,
          "texCoord": 0
        },
        "metallicFactor": 0,
        "roughnessFactor": 0.59999999999999998
      }
    }
  ],
  "meshes": [
    {
      "name": "Cylinder_0",
      "primitives": [
        {
          "attributes": {
            "NORMAL": 1,
            "POSITION": 0,
            "TANGENT": 2
          },
          "indices": 3,
          "material": 0,
          "mode": 4
        }
      ]
    },
    {
      "name": "Cylinder_1",
      "primitives": [
        {
          "attributes": {
            "NORMAL": 5,
            "POSITION": 4,
            "TANGENT": 6
          },
          "indices": 7,
          "material": 1,
          "mode": 4
        }
      ]
    },
    {
      "name": "Cylinder_2",
      "primitives": [
        {
          "attributes": {
            "NORMAL": 9,
            "POSITION": 8,
            "TANGENT": 10,
            "TEXCOORD_0": 11
          },
          "indices": 12,
          "material": 2,
          "mode": 4
        }
      ]
    }
  ],
  "nodes": [
    {
      "children": [
        1
      ],
      "name": "RootNode (gltf orientation matrix)",
      "rotation": [
        -0.70710678118654746,
        -0,
        -0,
        0.70710678118654757
      ]
    },
    {
      "children": [
        2
      ],
      "name": "RootNode (model correction matrix)"
    },
    {
      "children": [
        3,
        5
      ],
      "name": "Root"
    },
    {
      "children": [
        4
      ],
      "matrix": [
        -0.29086000000000006,
        0.95517000000000007,
        -0.05519000000000001,
        0,
        -0.77110000000000001,
        -0.19988000000000003,
        0.60452000000000006,
        0,
        0.56639000000000006,
        0.21839000000000003,
        0.7946700000000001,
        0,
        4.0762500000000008,
        1.00545,
        5.9038600000000008,
        1
      ],
      "name": "Lamp"
    },
    {
      "name": "Lamp"
    },
    {
      "children": [
        6,
        7,
        8
      ],
      "matrix": [
        1,
        0,
        0,
        0,
        0,
        1,
        0,
        0,
        0,
        0,
        1.5779099999999999,
        0,
        0,
        0,
        0.23700000000000002,
        1
      ],
      "name": "Cylinder"
    },
    {
      "mesh": 0,
      "name": "Cylinder_0"
    },
    {
      "mesh": 1,
      "name": "Cylinder_1"
    },
    {
      "mesh": 2,
      "name": "Cylinder_2"
    }
  ],
  "samplers": [
    {
      "magFilter": 9729,
      "minFilter": 9987,
      "wrapS": 10497,
      "wrapT": 10497
    }
  ],
  "scene": 0,
  "scenes": [
    {
      "name": "OSG_Scene",
      "nodes": [
        0
      ]
    }
  ],
  "textures": [
    {
      "sampler": 0,
      "source": 0
    }
  ]
}

