{
  "accessors": [
    {
      "bufferView": 2,
      "componentType": 5126,
      "count": 3167,
      "max": [
        10.218339920043945,
        12.262331962585449,
        165.76803588867188
      ],
      "min": [
        -10.218551635742188,
        -9.2056035995483398,
        135.4656982421875
      ],
      "type": "VEC3"
    },
    {
      "bufferView": 2,
      "byteOffset": 38004,
      "componentType": 5126,
      "count": 3167,
      "max": [
        0.99980312585830688,
        0.99943047761917114,
        1
      ],
      "min": [
        -0.9992976188659668,
        -0.99999749660491943,
        -1
      ],
      "type": "VEC3"
    },
    {
      "bufferView": 3,
      "componentType": 5126,
      "count": 3167,
      "max": [
        1,
        0.99974906444549561,
        0.99874019622802734,
        1
      ],
      "min": [
        -1,
        -0.99905401468276978,
        -0.99584472179412842,
        -1
      ],
      "type": "VEC4"
    },
    {
      "bufferView": 1,
      "componentType": 5126,
      "count": 3167,
      "max": [
        0.99316400289535522,
        0.99743497371673584
      ],
      "min": [
        0.0041809999383985996,
        0.0034179999493062496
      ],
      "type": "VEC2"
    },
    {
      "bufferView": 0,
      "componentType": 5125,
      "count": 16932,
      "max": [
        3166
      ],
      "min": [
        0
      ],
      "type": "SCALAR"
    },
    {
      "bufferView": 2,
      "byteOffset": 76008,
      "componentType": 5126,
      "count": 7269,
      "max": [
        37.434528350830078,
        17.374099731445312,
        146.85609436035156
      ],
      "min": [
        -37.434528350830078,
        -18.060300827026367,
        -0.42989999055862427
      ],
      "type": "VEC3"
    },
    {
      "bufferView": 2,
      "byteOffset": 163236,
      "componentType": 5126,
      "count": 7269,
      "max": [
        0.99989736080169678,
        0.99981409311294556,
        0.99947363138198853
      ],
      "min": [
        -0.99989736080169678,
        -0.99990266561508179,
        -0.99996435642242432
      ],
      "type": "VEC3"
    },
    {
      "bufferView": 3,
      "byteOffset": 50672,
      "componentType": 5126,
      "count": 7269,
      "max": [
        0.99999958276748657,
        0.99982833862304688,
        0.99910247325897217,
        1
      ],
      "min": [
        -0.99999970197677612,
        -0.99999696016311646,
        -0.99983251094818115,
        -1
      ],
      "type": "VEC4"
    },
    {
      "bufferView": 1,
      "byteOffset": 25336,
      "componentType": 5126,
      "count": 7269,
      "max": [
        0.99365198612213135,
        0.99562102556228638
      ],
      "min": [
        0.0025559999048709869,
        0.0034179999493062496
      ],
      "type": "VEC2"
    },
    {
      "bufferView": 0,
      "byteOffset": 67728,
      "componentType": 5125,
      "count": 36687,
      "max": [
        7268
      ],
      "min": [
        0
      ],
      "type": "SCALAR"
    },
    {
      "bufferView": 2,
      "byteOffset": 250464,
      "componentType": 5126,
      "count": 2281,
      "max": [
        11.127900123596191,
        12.911600112915039,
        168.44099426269531
      ],
      "min": [
        -10.590800285339355,
        -14.384799957275391,
        115.55419921875
      ],
      "type": "VEC3"
    },
    {
      "bufferView": 2,
      "byteOffset": 277836,
      "componentType": 5126,
      "count": 2281,
      "max": [
        0.99994313716888428,
        0.9999733567237854,
        0.99943774938583374
      ],
      "min": [
        -0.99994313716888428,
        -0.99956947565078735,
        -0.99969178438186646
      ],
      "type": "VEC3"
    },
    {
      "bufferView": 3,
      "byteOffset": 166976,
      "componentType": 5126,
      "count": 2281,
      "max": [
        1,
        0.9978528618812561,
        0.99891120195388794,
        1
      ],
      "min": [
        -1,
        -0.99785280227661133,
        -0.99952143430709839,
        1
      ],
      "type": "VEC4"
    },
    {
      "bufferView": 1,
      "byteOffset": 83488,
      "componentType": 5126,
      "count": 2281,
      "max": [
        0.99121099710464478,
        0.99414801597595215
      ],
      "min": [
        0.0089720003306865692,
        0.0063479999080300331
      ],
      "type": "VEC2"
    },
    {
      "bufferView": 0,
      "byteOffset": 214476,
      "componentType": 5125,
      "count": 10656,
      "max": [
        2280
      ],
      "min": [
        0
      ],
      "type": "SCALAR"
    }
  ],
  "asset": {
    "extras": {
      "author": "SSLeaker (https://sketchfab.com/SSLeaker)",
      "license": "CC-BY-4.0 (http://creativecommons.org/licenses/by/4.0/)",
      "source": "https://sketchfab.com/3d-models/ikonic-regular-96736ae9ec554a73a01b309ddffc69aa",
      "title": "iKONIC (Regular)"
    },
    "generator": "Sketchfab-6.3.0",
    "version": "2.0"
  },
  "bufferViews": [
    {
      "buffer": 0,
      "byteLength": 257100,
      "byteOffset": 0,
      "name": "floatBufferViews",
      "target": 34963
    },
    {
      "buffer": 0,
      "byteLength": 101736,
      "byteOffset": 257100,
      "byteStride": 8,
      "name": "floatBufferViews",
      "target": 34962
    },
    {
      "buffer": 0,
      "byteLength": 305208,
      "byteOffset": 358836,
      "byteStride": 12,
      "name": "floatBufferViews",
      "target": 34962
    },
    {
      "buffer": 0,
      "byteLength": 203472,
      "byteOffset": 664044,
      "byteStride": 16,
      "name": "floatBufferViews",
      "target": 34962
    }
  ],
  "buffers": [
    {
      "byteLength": 867516,
      "uri": "scene.bin"
    }
  ],
  "images": [
    {
      "uri": "textures/M_MED_ASN_Jae_Head_01_baseColor.png"
    },
    {
      "uri": "textures/M_MED_KpopFashion_Body_baseColor.png"
    },
    {
      "uri": "textures/M_MED_Kpop_Fashion_Hat_baseColor.png"
    }
  ],
  "materials": [
    {
      "doubleSided": true,
      "name": "M_MED_ASN_Jae_Head_01",
      "pbrMetallicRoughness": {
        "baseColorFactor": [
          1,
          1,
          1,
          1
        ],
        "baseColorTexture": {
          "index": 0,
          "texCoord": 0
        },
        "metallicFactor": 0,
        "roughnessFactor": 0.59999999999999998
      }
    },
    {
      "doubleSided": true,
      "name": "M_MED_KpopFashion_Body",
      "pbrMetallicRoughness": {
        "baseColorFactor": [
          1,
          1,
          1,
          1
        ],
        "baseColorTexture": {
          "index": 1,
          "texCoord": 0
        },
        "metallicFactor": 0,
        "roughnessFactor": 0.59999999999999998
      }
    },
    {
      "doubleSided": true,
      "name": "M_MED_Kpop_Fashion_Hat",
      "pbrMetallicRoughness": {
        "baseColorFactor": [
          1,
          1,
          1,
          1
        ],
        "baseColorTexture": {
          "index": 2,
          "texCoord": 0
        },
        "metallicFactor": 0,
        "roughnessFactor": 0.59999999999999998
      }
    }
  ],
  "meshes": [
    {
      "primitives": [
        {
          "attributes": {
            "NORMAL": 1,
            "POSITION": 0,
            "TANGENT": 2,
            "TEXCOORD_0": 3
          },
          "indices": 4,
          "material": 0,
          "mode": 4
        }
      ]
    },
    {
      "primitives": [
        {
          "attributes": {
            "NORMAL": 6,
            "POSITION": 5,
            "TANGENT": 7,
            "TEXCOORD_0": 8
          },
          "indices": 9,
          "material": 1,
          "mode": 4
        }
      ]
    },
    {
      "primitives": [
        {
          "attributes": {
            "NORMAL": 11,
            "POSITION": 10,
            "TANGENT": 12,
            "TEXCOORD_0": 13
          },
          "indices": 14,
          "material": 2,
          "mode": 4
        }
      ]
    }
  ],
  "nodes": [
    {
      "children": [
        1
      ],
      "name": "RootNode (gltf orientation matrix)",
      "rotation": [
        -0.70710678118654746,
        -0,
        -0,
        0.70710678118654757
      ]
    },
    {
      "children": [
        2
      ],
      "name": "RootNode (model correction matrix)"
    },
    {
      "children": [
        3,
        4,
        5
      ],
      "name": "iKONIC (Regular).obj.cleaner.materialmerger.gles"
    },
    {
      "mesh": 0,
      "name": ""
    },
    {
      "mesh": 1,
      "name": ""
    },
    {
      "mesh": 2,
      "name": ""
    }
  ],
  "samplers": [
    {
      "magFilter": 9729,
      "minFilter": 9987,
      "wrapS": 10497,
      "wrapT": 10497
    }
  ],
  "scene": 0,
  "scenes": [
    {
      "name": "OSG_Scene",
      "nodes": [
        0
      ]
    }
  ],
  "textures": [
    {
      "sampler": 0,
      "source": 0
    },
    {
      "sampler": 0,
      "source": 1
    },
    {
      "sampler": 0,
      "source": 2
    }
  ]
}

